<svg width="36" height="38" viewBox="0 0 36 38" fill="none" xmlns="http://www.w3.org/2000/svg">
<path fill-rule="evenodd" clip-rule="evenodd" d="M35.6628 13.6001C34.7217 10.7863 33.3319 8.24372 31.5287 6.04148C29.7363 3.85292 27.5903 2.07988 25.1479 0.771884C24.8733 0.625964 24.5442 0.677764 24.3185 0.910404L8.63062 16.872L6.81914 18.7155C6.72126 18.8025 6.63694 18.9188 6.58525 19.06C6.57722 19.0808 6.56897 19.1086 6.56068 19.1331L2.34233 31.343L0.541891 36.5596C0.438509 36.8548 0.498376 37.186 0.688826 37.4225C0.832785 37.5986 1.0342 37.6915 1.24077 37.6915C1.30885 37.6915 1.37957 37.6824 1.44761 37.6584L6.27243 36.1343L17.6196 32.5471C17.6903 32.5255 17.7611 32.4903 17.8263 32.4441C17.8616 32.4166 17.897 32.3864 17.9295 32.3562L19.7818 30.471L35.4669 14.5085C35.6926 14.2788 35.7689 13.9183 35.6628 13.6001ZM3.44118 32.8064C3.47102 32.8283 3.50643 32.8413 3.53654 32.8588C3.85727 33.0834 4.15653 33.3315 4.40398 33.6376C4.65147 33.9401 4.84735 34.2929 5.0187 34.6673C5.03784 34.7011 5.04582 34.7431 5.05942 34.7807L2.47834 35.598L3.44118 32.8064ZM17.0458 30.992L6.53902 34.3133C6.50911 34.2411 6.45749 34.1869 6.42486 34.1162C6.18268 33.5292 5.89172 32.9769 5.51093 32.5101C5.12747 32.0445 4.65965 31.6745 4.15653 31.3504C4.09395 31.3098 4.05586 31.2471 3.99328 31.2107L7.91527 19.8592L9.09019 18.6702L10.0394 19.8266L18.2151 29.8018L17.0458 30.992ZM19.3221 28.6746L16.9477 25.7786L29.4182 13.0951C29.5786 12.9282 29.66 12.7029 29.66 12.4732C29.66 12.2761 29.5976 12.0733 29.4643 11.9138C29.1869 11.5734 28.7109 11.5512 28.4062 11.8608L15.936 24.5451L15.4491 23.9478L13.5806 21.6636L26.0455 8.98076C26.2086 8.81264 26.2904 8.58856 26.2904 8.35828C26.2904 8.16112 26.2249 7.95896 26.0945 7.79824C25.8143 7.45964 25.3384 7.4386 25.0337 7.74644L12.5661 20.4326L10.1971 17.5389L24.9495 2.52624C27.0301 3.71348 28.8714 5.27044 30.4217 7.17132C31.9828 9.07368 33.2067 11.2555 34.0771 13.661L19.3221 28.6746Z" fill="url(#paint0_linear_0_147)"/>
<path fill-rule="evenodd" clip-rule="evenodd" d="M35.6628 13.6001C34.7217 10.7863 33.3319 8.24372 31.5287 6.04148C29.7363 3.85292 27.5903 2.07988 25.1479 0.771884C24.8733 0.625964 24.5442 0.677764 24.3185 0.910404L8.63062 16.872L6.81914 18.7155C6.72126 18.8025 6.63694 18.9188 6.58525 19.06C6.57722 19.0808 6.56897 19.1086 6.56068 19.1331L2.34233 31.343L0.541891 36.5596C0.438509 36.8548 0.498376 37.186 0.688826 37.4225C0.832785 37.5986 1.0342 37.6915 1.24077 37.6915C1.30885 37.6915 1.37957 37.6824 1.44761 37.6584L6.27243 36.1343L17.6196 32.5471C17.6903 32.5255 17.7611 32.4903 17.8263 32.4441C17.8616 32.4166 17.897 32.3864 17.9295 32.3562L19.7818 30.471L35.4669 14.5085C35.6926 14.2788 35.7689 13.9183 35.6628 13.6001ZM3.44118 32.8064C3.47102 32.8283 3.50643 32.8413 3.53654 32.8588C3.85727 33.0834 4.15653 33.3315 4.40398 33.6376C4.65147 33.9401 4.84735 34.2929 5.0187 34.6673C5.03784 34.7011 5.04582 34.7431 5.05942 34.7807L2.47834 35.598L3.44118 32.8064ZM17.0458 30.992L6.53902 34.3133C6.50911 34.2411 6.45749 34.1869 6.42486 34.1162C6.18268 33.5292 5.89172 32.9769 5.51093 32.5101C5.12747 32.0445 4.65965 31.6745 4.15653 31.3504C4.09395 31.3098 4.05586 31.2471 3.99328 31.2107L7.91527 19.8592L9.09019 18.6702L10.0394 19.8266L18.2151 29.8018L17.0458 30.992ZM19.3221 28.6746L16.9477 25.7786L29.4182 13.0951C29.5786 12.9282 29.66 12.7029 29.66 12.4732C29.66 12.2761 29.5976 12.0733 29.4643 11.9138C29.1869 11.5734 28.7109 11.5512 28.4062 11.8608L15.936 24.5451L15.4491 23.9478L13.5806 21.6636L26.0455 8.98076C26.2086 8.81264 26.2904 8.58856 26.2904 8.35828C26.2904 8.16112 26.2249 7.95896 26.0945 7.79824C25.8143 7.45964 25.3384 7.4386 25.0337 7.74644L12.5661 20.4326L10.1971 17.5389L24.9495 2.52624C27.0301 3.71348 28.8714 5.27044 30.4217 7.17132C31.9828 9.07368 33.2067 11.2555 34.0771 13.661L19.3221 28.6746Z" fill="#FF3B4A"/>
<defs>
<linearGradient id="paint0_linear_0_147" x1="17.2623" y1="-16.9294" x2="-18.019" y2="18.3308" gradientUnits="userSpaceOnUse">
<stop stop-color="white"/>
<stop offset="1" stop-color="white"/>
</linearGradient>
</defs>
</svg>
