<svg width="41" height="33" viewBox="0 0 41 33" fill="none" xmlns="http://www.w3.org/2000/svg">
<path fill-rule="evenodd" clip-rule="evenodd" d="M40.0876 10.4197C40.0876 10.3877 40.0612 10.3729 40.0559 10.3415C40.048 10.2726 40.0612 10.2024 40.0323 10.1364L35.913 0.43956C35.7997 0.174924 35.5366 0 35.2445 0H4.8459C4.55365 0 4.29057 0.174924 4.17723 0.43956L0.0552639 10.1364C0.0263119 10.2024 0.039468 10.2726 0.028952 10.3415C0.026312 10.3729 0 10.3877 0 10.4197C0 10.4339 0.015884 10.4454 0.015884 10.4617C0.026312 10.6198 0.0710599 10.7707 0.17908 10.8957L19.499 32.7284C19.5147 32.7476 19.5437 32.7396 19.5595 32.7591C19.6121 32.8053 19.6543 32.8473 19.7175 32.8811C19.7306 32.8867 19.7332 32.9095 19.7516 32.9151C19.8463 32.9551 19.9463 32.9755 20.0412 32.9755C20.1385 32.9755 20.2386 32.9551 20.3334 32.9151C20.3517 32.9095 20.3544 32.8867 20.3676 32.8781C20.4307 32.8473 20.4728 32.8053 20.5228 32.7591C20.5413 32.7396 20.5703 32.7476 20.5861 32.7284L39.9059 10.8957C40.0139 10.7707 40.0612 10.6198 40.0718 10.4617C40.0718 10.4454 40.0876 10.4339 40.0876 10.4197ZM24.9712 1.44299L28.5246 9.69862H11.5631L15.1191 1.44299H24.9712ZM28.514 11.1407L20.0412 30.448L11.5734 11.1407H28.514ZM9.98892 11.1407L17.5195 28.3118L2.32681 11.1407H9.98892ZM30.0986 11.1407H37.758L22.5653 28.3088L30.0986 11.1407ZM38.2713 9.69862H30.1011L26.5478 1.44299H34.7626L38.2713 9.69862ZM5.32492 1.44299H13.5451L9.98892 9.69862H1.8161L5.32492 1.44299Z" fill="url(#paint0_linear_100019_5)"/>
<path fill-rule="evenodd" clip-rule="evenodd" d="M40.0876 10.4197C40.0876 10.3877 40.0612 10.3729 40.0559 10.3415C40.048 10.2726 40.0612 10.2024 40.0323 10.1364L35.913 0.43956C35.7997 0.174924 35.5366 0 35.2445 0H4.8459C4.55365 0 4.29057 0.174924 4.17723 0.43956L0.0552639 10.1364C0.0263119 10.2024 0.039468 10.2726 0.028952 10.3415C0.026312 10.3729 0 10.3877 0 10.4197C0 10.4339 0.015884 10.4454 0.015884 10.4617C0.026312 10.6198 0.0710599 10.7707 0.17908 10.8957L19.499 32.7284C19.5147 32.7476 19.5437 32.7396 19.5595 32.7591C19.6121 32.8053 19.6543 32.8473 19.7175 32.8811C19.7306 32.8867 19.7332 32.9095 19.7516 32.9151C19.8463 32.9551 19.9463 32.9755 20.0412 32.9755C20.1385 32.9755 20.2386 32.9551 20.3334 32.9151C20.3517 32.9095 20.3544 32.8867 20.3676 32.8781C20.4307 32.8473 20.4728 32.8053 20.5228 32.7591C20.5413 32.7396 20.5703 32.7476 20.5861 32.7284L39.9059 10.8957C40.0139 10.7707 40.0612 10.6198 40.0718 10.4617C40.0718 10.4454 40.0876 10.4339 40.0876 10.4197ZM24.9712 1.44299L28.5246 9.69862H11.5631L15.1191 1.44299H24.9712ZM28.514 11.1407L20.0412 30.448L11.5734 11.1407H28.514ZM9.98892 11.1407L17.5195 28.3118L2.32681 11.1407H9.98892ZM30.0986 11.1407H37.758L22.5653 28.3088L30.0986 11.1407ZM38.2713 9.69862H30.1011L26.5478 1.44299H34.7626L38.2713 9.69862ZM5.32492 1.44299H13.5451L9.98892 9.69862H1.8161L5.32492 1.44299Z" fill="#FF3B4A"/>
<defs>
<linearGradient id="paint0_linear_100019_5" x1="16.3995" y1="-13.49" x2="-9.1002" y2="24.3981" gradientUnits="userSpaceOnUse">
<stop stop-color="white"/>
<stop offset="1" stop-color="white"/>
</linearGradient>
</defs>
</svg>
