<svg width="41" height="41" viewBox="0 0 41 41" fill="none" xmlns="http://www.w3.org/2000/svg">
<path fill-rule="evenodd" clip-rule="evenodd" d="M20.7111 26.1906C17.6517 26.1906 15.1618 23.6965 15.1618 20.6253C15.1618 17.556 17.6517 15.062 20.7111 15.062C23.7675 15.062 26.2551 17.556 26.2551 20.6253C26.2551 23.6965 23.7675 26.1906 20.7111 26.1906ZM20.7111 16.5041C18.4428 16.5041 16.6 18.3535 16.6 20.6253C16.6 22.897 18.4428 24.7482 20.7111 24.7482C22.974 24.7482 24.8168 22.897 24.8168 20.6253C24.8168 18.3535 22.974 16.5041 20.7111 16.5041ZM18.2939 40.7222C17.9651 40.7222 17.6781 40.4961 17.597 40.177L16.3599 35.2143C15.3967 34.916 14.4466 34.5102 13.5277 34.0091L9.12691 36.6588C8.84509 36.8287 8.48238 36.7819 8.24992 36.5523L4.83061 33.1217C4.59823 32.8893 4.5539 32.5267 4.72354 32.2428L7.36511 27.8355C6.87448 26.9235 6.48026 25.9745 6.18803 24.9971L1.21276 23.7501C0.894429 23.6705 0.667389 23.3798 0.667389 23.0521V18.2081C0.667389 17.8757 0.894429 17.5868 1.21276 17.5087L6.15926 16.2702C6.46203 15.294 6.86657 14.341 7.36249 13.4257L4.721 9.01094C4.55136 8.72648 4.59583 8.36242 4.82798 8.12918L8.24214 4.70624C8.47709 4.47093 8.83984 4.4224 9.12183 4.59853L13.5226 7.24473C14.4283 6.75809 15.3758 6.3591 16.3493 6.06725L17.5918 1.07734C17.6727 0.756492 17.9598 0.53064 18.2888 0.53064H23.1203C23.449 0.53064 23.7388 0.756492 23.8172 1.07734L25.0545 6.04388C26.0254 6.34696 26.9755 6.75132 27.8838 7.24117L32.2898 4.58995C32.5665 4.42803 32.932 4.47093 33.167 4.70092L36.581 8.12412C36.8159 8.35736 36.8603 8.72027 36.6906 9.00649L34.0491 13.4257C34.5346 14.3315 34.9288 15.281 35.2211 16.2519L40.2014 17.5037C40.5224 17.5818 40.747 17.8725 40.747 18.2028V23.0429C40.747 23.3724 40.5224 23.6636 40.2014 23.7409L35.2211 24.9921C34.9288 25.9725 34.5346 26.9214 34.0517 27.8212L36.6959 32.2372C36.8655 32.5231 36.8212 32.8863 36.5863 33.1193L33.1721 36.5499C32.9373 36.7819 32.5743 36.8216 32.295 36.6588L27.8891 34.0067C26.9807 34.5037 26.0306 34.9044 25.0571 35.2111L23.825 40.1741C23.744 40.4937 23.457 40.719 23.1254 40.719L18.2939 40.7222ZM13.4092 32.4826C13.5318 32.4826 13.6569 32.514 13.7691 32.5791C14.8238 33.1889 15.9279 33.6568 17.0477 33.9691C17.2956 34.0393 17.4861 34.2414 17.5513 34.4922L18.7521 39.3071L22.4586 39.3042L23.6567 34.4871C23.7193 34.2388 23.9098 34.0393 24.1578 33.9691C25.2933 33.6494 26.3948 33.1809 27.4363 32.5773C27.6633 32.4436 27.94 32.448 28.1646 32.5806L32.4453 35.1608L35.0684 32.5255L32.4975 28.2365C32.3616 28.0104 32.3616 27.7301 32.4896 27.5025C33.0821 26.4748 33.5363 25.3772 33.8443 24.2332C33.9122 23.9819 34.1106 23.7865 34.3636 23.7238L39.2029 22.5063V18.7928L34.3636 17.5771C34.1106 17.5155 33.9122 17.3193 33.8443 17.0665C33.5388 15.9334 33.0821 14.8305 32.4896 13.7943C32.3616 13.5705 32.3643 13.2911 32.4975 13.0643L35.0631 8.77446L32.4425 6.14691L28.1619 8.72236C27.94 8.85762 27.6633 8.86387 27.4337 8.7283C26.3895 8.12506 25.288 7.65739 24.1553 7.3368C23.9073 7.26843 23.7167 7.07069 23.654 6.81941L22.4534 2H18.747L17.5382 6.84783C17.4758 7.09973 17.2799 7.30099 17.0295 7.36818C15.894 7.6778 14.795 8.1354 13.7615 8.72976C13.537 8.86387 13.2602 8.86088 13.0332 8.72236L8.75768 6.14867L6.13704 8.78009L8.70285 13.0643C8.8386 13.2911 8.8386 13.5705 8.70823 13.7966C8.10515 14.8498 7.63533 15.9574 7.31941 17.0899C7.24894 17.3418 7.05058 17.5327 6.79997 17.5958L1.99997 18.7984V22.5137L6.83394 23.7288C7.08717 23.7916 7.28549 23.9878 7.35334 24.2397C7.66126 25.3754 8.11564 26.4772 8.71339 27.5146C8.84376 27.7419 8.84123 28.0222 8.70539 28.2463L6.13967 32.5305L8.76284 35.1632L13.0384 32.5871C13.1533 32.5175 13.2811 32.4826 13.4092 32.4826Z" fill="url(#paint0_linear_0_141)"/>
<path fill-rule="evenodd" clip-rule="evenodd" d="M20.7111 26.1906C17.6517 26.1906 15.1618 23.6965 15.1618 20.6253C15.1618 17.556 17.6517 15.062 20.7111 15.062C23.7675 15.062 26.2551 17.556 26.2551 20.6253C26.2551 23.6965 23.7675 26.1906 20.7111 26.1906ZM20.7111 16.5041C18.4428 16.5041 16.6 18.3535 16.6 20.6253C16.6 22.897 18.4428 24.7482 20.7111 24.7482C22.974 24.7482 24.8168 22.897 24.8168 20.6253C24.8168 18.3535 22.974 16.5041 20.7111 16.5041ZM18.2939 40.7222C17.9651 40.7222 17.6781 40.4961 17.597 40.177L16.3599 35.2143C15.3967 34.916 14.4466 34.5102 13.5277 34.0091L9.12691 36.6588C8.84509 36.8287 8.48238 36.7819 8.24992 36.5523L4.83061 33.1217C4.59823 32.8893 4.5539 32.5267 4.72354 32.2428L7.36511 27.8355C6.87448 26.9235 6.48026 25.9745 6.18803 24.9971L1.21276 23.7501C0.894429 23.6705 0.667389 23.3798 0.667389 23.0521V18.2081C0.667389 17.8757 0.894429 17.5868 1.21276 17.5087L6.15926 16.2702C6.46203 15.294 6.86657 14.341 7.36249 13.4257L4.721 9.01094C4.55136 8.72648 4.59583 8.36242 4.82798 8.12918L8.24214 4.70624C8.47709 4.47093 8.83984 4.4224 9.12183 4.59853L13.5226 7.24473C14.4283 6.75809 15.3758 6.3591 16.3493 6.06725L17.5918 1.07734C17.6727 0.756492 17.9598 0.53064 18.2888 0.53064H23.1203C23.449 0.53064 23.7388 0.756492 23.8172 1.07734L25.0545 6.04388C26.0254 6.34696 26.9755 6.75132 27.8838 7.24117L32.2898 4.58995C32.5665 4.42803 32.932 4.47093 33.167 4.70092L36.581 8.12412C36.8159 8.35736 36.8603 8.72027 36.6906 9.00649L34.0491 13.4257C34.5346 14.3315 34.9288 15.281 35.2211 16.2519L40.2014 17.5037C40.5224 17.5818 40.747 17.8725 40.747 18.2028V23.0429C40.747 23.3724 40.5224 23.6636 40.2014 23.7409L35.2211 24.9921C34.9288 25.9725 34.5346 26.9214 34.0517 27.8212L36.6959 32.2372C36.8655 32.5231 36.8212 32.8863 36.5863 33.1193L33.1721 36.5499C32.9373 36.7819 32.5743 36.8216 32.295 36.6588L27.8891 34.0067C26.9807 34.5037 26.0306 34.9044 25.0571 35.2111L23.825 40.1741C23.744 40.4937 23.457 40.719 23.1254 40.719L18.2939 40.7222ZM13.4092 32.4826C13.5318 32.4826 13.6569 32.514 13.7691 32.5791C14.8238 33.1889 15.9279 33.6568 17.0477 33.9691C17.2956 34.0393 17.4861 34.2414 17.5513 34.4922L18.7521 39.3071L22.4586 39.3042L23.6567 34.4871C23.7193 34.2388 23.9098 34.0393 24.1578 33.9691C25.2933 33.6494 26.3948 33.1809 27.4363 32.5773C27.6633 32.4436 27.94 32.448 28.1646 32.5806L32.4453 35.1608L35.0684 32.5255L32.4975 28.2365C32.3616 28.0104 32.3616 27.7301 32.4896 27.5025C33.0821 26.4748 33.5363 25.3772 33.8443 24.2332C33.9122 23.9819 34.1106 23.7865 34.3636 23.7238L39.2029 22.5063V18.7928L34.3636 17.5771C34.1106 17.5155 33.9122 17.3193 33.8443 17.0665C33.5388 15.9334 33.0821 14.8305 32.4896 13.7943C32.3616 13.5705 32.3643 13.2911 32.4975 13.0643L35.0631 8.77446L32.4425 6.14691L28.1619 8.72236C27.94 8.85762 27.6633 8.86387 27.4337 8.7283C26.3895 8.12506 25.288 7.65739 24.1553 7.3368C23.9073 7.26843 23.7167 7.07069 23.654 6.81941L22.4534 2H18.747L17.5382 6.84783C17.4758 7.09973 17.2799 7.30099 17.0295 7.36818C15.894 7.6778 14.795 8.1354 13.7615 8.72976C13.537 8.86387 13.2602 8.86088 13.0332 8.72236L8.75768 6.14867L6.13704 8.78009L8.70285 13.0643C8.8386 13.2911 8.8386 13.5705 8.70823 13.7966C8.10515 14.8498 7.63533 15.9574 7.31941 17.0899C7.24894 17.3418 7.05058 17.5327 6.79997 17.5958L1.99997 18.7984V22.5137L6.83394 23.7288C7.08717 23.7916 7.28549 23.9878 7.35334 24.2397C7.66126 25.3754 8.11564 26.4772 8.71339 27.5146C8.84376 27.7419 8.84123 28.0222 8.70539 28.2463L6.13967 32.5305L8.76284 35.1632L13.0384 32.5871C13.1533 32.5175 13.2811 32.4826 13.4092 32.4826Z" fill="#FF3B4A"/>
<defs>
<linearGradient id="paint0_linear_0_141" x1="21.1626" y1="-19.1084" x2="-19.0262" y2="20.0576" gradientUnits="userSpaceOnUse">
<stop stop-color="white"/>
<stop offset="1" stop-color="white"/>
</linearGradient>
</defs>
</svg>
